<?xml version="1.0" encoding="utf-8"?>
<svg viewBox="0 0 329.503 61.502" xmlns="http://www.w3.org/2000/svg">
  <script type="text/ecmascript"><![CDATA[
    function getColor(prior){
      let colors = ["#6baa69","#787c7e","#c9b458"];
      return colors[(colors.indexOf(prior)+1)%3];
    }

    //some fun if they click on the image
    function colorShuffle(evt){
      let svg = evt.target;
      svg.setAttribute('fill',getColor(svg.getAttribute('fill')));
    }
    ]]>
  </script>
  <g transform="matrix(1, 0, 0, 1, 3.119219, -1.417827)">
    <title>This Wordle Does Not Exist</title>
    <g id="svg_2" transform="matrix(1, 0, 0, 1, -3.119219, 1.417827)">
      <rect fill="#6baa69" width="61.50265" height="61.50226" id="svg_1" y="0" x="0" onclick="colorShuffle(evt)"/>
      <path d="M 40.375 18.462 L 40.375 21.024 L 33.5 21.024 L 33.5 41.493 L 29.719 41.493 L 29.719 21.024 L 22.844 21.024 L 22.844 18.462 Z" style="fill: rgb(255, 255, 255); stroke-width: 0px; white-space: pre;"/>
      <rect fill="#c9b458" x="67.24999" width="61.50265" height="61.50226" id="svg_5" y="0" onclick="colorShuffle(evt)"/>
      <rect fill="#c9b458" x="133.99997" width="61.50265" height="61.50226" id="svg_6" y="0" onclick="colorShuffle(evt)"/>
      <rect fill="#787c7e" x="201.00028" width="61.50265" height="61.50226" id="svg_7" y="0" onclick="colorShuffle(evt)"/>
      <rect fill="#6baa69" x="268.00028" width="61.50265" height="61.50226" id="svg_8" y="0" onclick="colorShuffle(evt)"/>
      <path d="M 114.4375991821289 17.961650848388672 L 108.2188491821289 41.11790084838867 L 103.3438491821289 41.11790084838867 L 99.5625991821289 23.742900848388672 L 95.5313491821289 41.11790084838867 L 90.6250991821289 41.11790084838867 L 84.7813491821289 17.961650848388672 L 89.0313491821289 17.961650848388672 L 93.0938491821289 37.83665084838867 L 97.4688491821289 17.961650848388672 L 101.7188491821289 17.961650848388672 L 105.7813491821289 37.83665084838867 L 110.1875991821289 17.961650848388672 Z" transform="matrix(1, 0, 0, 1, 0, 0)" style="fill: rgb(255, 255, 255); stroke-width: 0px; white-space: pre;"/>
      <path d="M 174.59375 28.836650848388672 Q 174.59375 31.680400848388672 173.984375 33.69602584838867 Q 173.375 35.71165084838867 172.4375 37.07102584838867 Q 171.5 38.43040084838867 170.328125 39.21165084838867 Q 169.15625 39.99290084838867 168.0625 40.38352584838867 Q 166.96875 40.77415084838867 166.0625 40.88352584838867 Q 165.15625 40.99290084838867 164.71875 40.99290084838867 L 156 40.99290084838867 L 156 17.961650848388672 L 162.9375 17.961650848388672 Q 165.84375 17.961650848388672 168.046875 18.883525848388672 Q 170.25 19.805400848388672 171.703125 21.336650848388672 Q 173.15625 22.867900848388672 173.875 24.821025848388672 Q 174.59375 26.774150848388672 174.59375 28.836650848388672 Z M 163.46875 38.24290084838867 Q 167.28125 38.24290084838867 168.96875 35.80540084838867 Q 170.65625 33.36790084838867 170.65625 28.742900848388672 Q 170.65625 27.305400848388672 170.3125 25.899150848388672 Q 169.96875 24.492900848388672 168.984375 23.352275848388672 Q 168 22.211650848388672 166.3125 21.508525848388672 Q 164.625 20.805400848388672 161.9375 20.805400848388672 L 159.75 20.805400848388672 L 159.75 38.24290084838867 Z" transform="matrix(1, 0, 0, 1, 0, 0)" style="fill: rgb(255, 255, 255); stroke-width: 0px; white-space: pre;"/>
      <path d="M 239.78123474121094 17.961650848388672 L 239.78123474121094 40.99290084838867 L 235.96873474121094 40.99290084838867 L 226.93748474121094 25.117900848388672 L 226.93748474121094 40.99290084838867 L 223.12498474121094 40.99290084838867 L 223.12498474121094 17.961650848388672 L 226.93748474121094 17.961650848388672 L 235.96873474121094 33.83665084838867 L 235.96873474121094 17.961650848388672 Z" transform="matrix(1, 0, 0, 1, 0, 0)" style="fill: rgb(255, 255, 255); stroke-width: 0px; white-space: pre;"/>
      <path d="M 295.28125 20.805400848388672 L 295.28125 28.055400848388672 L 304.90625 28.055400848388672 L 304.90625 30.617900848388672 L 295.28125 30.617900848388672 L 295.28125 38.14915084838867 L 305.875 38.14915084838867 L 305.875 40.99290084838867 L 291.46875 40.99290084838867 L 291.46875 17.961650848388672 L 305.875 17.961650848388672 L 305.875 20.805400848388672 Z" transform="matrix(1, 0, 0, 1, 0, 0)" style="fill: rgb(255, 255, 255); stroke-width: 0px; white-space: pre;"/>
    </g>
  </g>
</svg>
